<?xml version="1.0" standalone="no"?>
<!DOCTYPE svg PUBLIC "-//W3C//DTD SVG 20010904//EN"
 "http://www.w3.org/TR/2001/REC-SVG-20010904/DTD/svg10.dtd">
<svg version="1.0" xmlns="http://www.w3.org/2000/svg"
 width="1536.000000pt" height="954.000000pt" viewBox="0 0 1536.000000 954.000000"
 preserveAspectRatio="xMidYMid meet">

<g transform="translate(0.000000,954.000000) scale(0.100000,-0.100000)"
fill="#000000" stroke="none">
<path d="M0 9133 l0 -408 66 -120 c373 -681 983 -1236 1864 -1697 328 -172
632 -298 890 -368 982 -269 2292 -540 4195 -870 1864 -323 3434 -804 4802
-1470 1724 -840 2788 -1935 3329 -3430 51 -139 120 -371 169 -565 l44 -170 0
4753 1 4752 -7680 0 -7680 0 0 -407z"/>
</g>
</svg>
